grf
version=1
nRows=38
nColumns=19
inDegrees=yes
endheader
time	ground_force_1_vx	ground_force_1_vy	ground_force_1_vz	ground_force_1_px	ground_force_1_py	ground_force_1_pz	ground_moment_1_mx	ground_moment_1_my	ground_moment_1_mz	ground_force_2_vx	ground_force_2_vy	ground_force_2_vz	ground_force_2_px	ground_force_2_py	ground_force_2_pz	ground_moment_2_mx	ground_moment_2_my	ground_moment_2_mz
5.988000	3.606409	877.276812	-74.256835	0.189517	0.000000	-1.040207	0.000000	3.657424	0.000000	-2.990265	743.030019	81.280554	0.202496	0.000000	-1.426531	0.000000	-3.180565	-0.000000
5.989000	3.407868	875.909648	-74.270821	0.189512	0.000000	-1.039384	0.000000	3.657576	0.000000	-2.633680	741.628929	81.031407	0.200928	0.000000	-1.431679	0.000000	-3.192784	-0.000000
5.990000	3.215315	874.556034	-74.287348	0.189865	0.000000	-1.038720	0.000000	3.657909	0.000000	-2.272636	740.264784	80.784535	0.201269	0.000000	-1.431634	0.000000	-3.205242	-0.000000
5.991000	3.029780	873.214552	-74.305793	0.190458	0.000000	-1.039049	0.000000	3.658465	0.000000	-1.908839	738.938319	80.540369	0.200628	0.000000	-1.431496	0.000000	-3.217859	-0.000000
5.992000	2.852258	871.882867	-74.325446	0.189287	0.000000	-1.039075	0.000000	3.659286	0.000000	-1.544102	737.650277	80.299320	0.200383	0.000000	-1.429865	0.000000	-3.230546	-0.000000
5.993000	2.683698	870.558077	-74.345468	0.188119	0.000000	-1.034706	0.000000	3.660419	0.000000	-1.180285	736.401316	80.061682	0.199743	0.000000	-1.430515	0.000000	-3.243231	-0.000000
5.994000	2.525009	869.238075	-74.364949	0.188723	0.000000	-1.037244	0.000000	3.661933	0.000000	-0.819168	735.191588	79.827530	0.200570	0.000000	-1.429779	0.000000	-3.255881	-0.000000
5.995000	2.377080	867.922593	-74.383036	0.189737	0.000000	-1.038052	0.000000	3.663925	0.000000	-0.462373	734.020191	79.596718	0.199156	0.000000	-1.430857	0.000000	-3.268482	-0.000000
5.996000	2.240761	866.612601	-74.399060	0.190685	0.000000	-1.042480	0.000000	3.666513	0.000000	-0.111401	732.884930	79.368992	0.197977	0.000000	-1.430682	0.000000	-3.281023	-0.000000
5.997000	2.116821	865.308738	-74.412601	0.188631	0.000000	-1.040077	0.000000	3.669798	0.000000	0.232214	731.782762	79.144080	0.198590	0.000000	-1.431381	0.000000	-3.293505	-0.000000
5.998000	2.005932	864.010404	-74.423424	0.189302	0.000000	-1.037465	0.000000	3.673860	0.000000	0.566804	730.710472	78.921718	0.198989	0.000000	-1.430803	0.000000	-3.305947	-0.000000
5.999000	1.908687	862.716243	-74.431350	0.188798	0.000000	-1.038975	0.000000	3.678779	0.000000	0.890600	729.664754	78.701670	0.198449	0.000000	-1.430527	0.000000	-3.318380	-0.000000
6.000000	1.825622	861.425157	-74.436205	0.188087	0.000000	-1.036844	0.000000	3.684655	0.000000	1.201846	728.641806	78.483770	0.197935	0.000000	-1.429043	0.000000	-3.330833	-0.000000
6.001000	1.757220	860.136798	-74.437801	0.188640	0.000000	-1.038444	0.000000	3.691595	0.000000	1.498915	727.637193	78.267978	0.197763	0.000000	-1.432381	0.000000	-3.343315	-0.000000
6.002000	1.703922	858.851164	-74.435926	0.189401	0.000000	-1.040889	0.000000	3.699714	0.000000	1.780373	726.646387	78.054364	0.197988	0.000000	-1.431949	0.000000	-3.355811	-0.000000
6.003000	1.666068	857.567697	-74.430293	0.187986	0.000000	-1.038848	0.000000	3.709102	0.000000	2.044939	725.665432	77.843049	0.196529	0.000000	-1.430896	0.000000	-3.368293	-0.000000
6.004000	1.643780	856.284848	-74.420528	0.188635	0.000000	-1.037271	0.000000	3.719783	0.000000	2.291434	724.690995	77.634169	0.197141	0.000000	-1.428032	0.000000	-3.380739	-0.000000
6.005000	1.636963	855.000518	-74.406205	0.187620	0.000000	-1.037586	0.000000	3.731688	0.000000	2.518790	723.719862	77.427877	0.196854	0.000000	-1.430282	0.000000	-3.393136	-0.000000
6.006000	1.645443	853.712533	-74.386872	0.188221	0.000000	-1.038885	0.000000	3.744695	0.000000	2.726102	722.748749	77.224354	0.196156	0.000000	-1.430951	0.000000	-3.405480	-0.000000
6.007000	1.669045	852.418781	-74.362080	0.186853	0.000000	-1.039783	0.000000	3.758681	0.000000	2.912685	721.774630	77.023855	0.195866	0.000000	-1.430197	0.000000	-3.417766	-0.000000
6.008000	1.707577	851.117388	-74.331411	0.188793	0.000000	-1.038376	0.000000	3.773544	0.000000	3.078120	720.794883	76.826758	0.195214	0.000000	-1.430052	0.000000	-3.429989	-0.000000
6.009000	1.760855	849.807096	-74.294525	0.187262	0.000000	-1.039156	0.000000	3.789221	0.000000	3.222265	719.806953	76.633556	0.194947	0.000000	-1.429288	0.000000	-3.442156	-0.000000
6.010000	1.828731	848.487394	-74.251182	0.187325	0.000000	-1.038918	0.000000	3.805670	0.000000	3.345237	718.808193	76.444772	0.196186	0.000000	-1.430718	0.000000	-3.454282	-0.000000
6.011000	1.911027	847.157983	-74.201168	0.186852	0.000000	-1.037766	0.000000	3.822852	0.000000	3.447393	717.796360	76.260888	0.195258	0.000000	-1.429199	0.000000	-3.466390	-0.000000
6.012000	2.007423	845.818147	-74.144168	0.186508	0.000000	-1.039486	-0.000000	3.840715	0.000000	3.529305	716.770193	76.082345	0.193719	0.000000	-1.430216	0.000000	-3.478509	-0.000000
6.013000	2.117415	844.466836	-74.079736	0.186860	0.000000	-1.039227	-0.000000	3.859206	0.000000	3.591745	715.729377	75.909580	0.194721	0.000000	-1.429054	0.000000	-3.490680	-0.000000
6.014000	2.240378	843.103212	-74.007398	0.185604	0.000000	-1.039022	-0.000000	3.878287	0.000000	3.635675	714.674340	75.742982	0.193984	0.000000	-1.431264	0.000000	-3.502948	-0.000000
6.015000	2.375613	841.726809	-73.926737	0.186358	0.000000	-1.038862	-0.000000	3.897937	0.000000	3.662211	713.606398	75.582784	0.194452	0.000000	-1.429227	0.000000	-3.515349	-0.000000
6.016000	2.522377	840.337181	-73.837443	0.185756	0.000000	-1.039730	-0.000000	3.918143	0.000000	3.672530	712.528003	75.429063	0.194106	0.000000	-1.430257	0.000000	-3.527907	-0.000000
6.017000	2.679915	838.933637	-73.739308	0.186191	0.000000	-1.038967	-0.000000	3.938896	0.000000	3.667804	711.442748	75.281814	0.194000	0.000000	-1.430803	0.000000	-3.540623	-0.000000
6.018000	2.847556	837.515317	-73.632208	0.185748	0.000000	-1.038209	-0.000000	3.960180	0.000000	3.649161	710.355193	75.140990	0.193692	0.000000	-1.430437	0.000000	-3.553469	-0.000000
6.019000	3.024810	836.081313	-73.516099	0.185548	0.000000	-1.039491	-0.000000	3.981973	0.000000	3.617736	709.270575	75.006502	0.193907	0.000000	-1.430560	0.000000	-3.566403	-0.000000
6.020000	3.211349	834.630664	-73.390981	0.185273	0.000000	-1.039033	-0.000000	4.004241	0.000000	3.574723	708.194374	74.878212	0.191558	0.000000	-1.430885	0.000000	-3.579388	-0.000000
6.021000	3.406967	833.162430	-73.256847	0.185056	0.000000	-1.039798	-0.000000	4.026946	0.000000	3.521358	707.131718	74.755913	0.193505	0.000000	-1.428352	0.000000	-3.592402	-0.000000
6.022000	3.611611	831.675646	-73.113651	0.185777	0.000000	-1.042132	-0.000000	4.050026	0.000000	3.458851	706.086788	74.639289	0.194586	0.000000	-1.424929	0.000000	-3.605429	-0.000000
6.023000	3.825424	830.168965	-72.961272	0.183409	0.000000	-1.037352	-0.000000	4.073398	0.000000	3.388372	705.062464	74.527885	0.194323	0.000000	-1.425738	0.000000	-3.618450	-0.000000
6.024000	4.048686	828.640659	-72.799552	0.184522	0.000000	-1.038849	-0.000000	4.096958	0.000000	3.311053	704.059931	74.421126	0.190990	0.000000	-1.428923	0.000000	-3.631428	-0.000000
6.025000	4.281719	827.089212	-72.628363	0.184129	0.000000	-1.040615	-0.000000	4.120587	0.000000	3.227936	703.078292	74.318371	0.193354	0.000000	-1.426358	0.000000	-3.644306	-0.000000
